<svg width="676" height="82" viewBox="0 0 676 82" fill="none" xmlns="http://www.w3.org/2000/svg">
<path d="M672 63.3614C672 65.6324 670.658 68.5 666.572 71.9047C662.526 75.2764 656.318 78.7101 647.943 82.0871C631.228 88.8258 606.803 94.9783 576.33 100.175C515.447 110.557 431.182 117 338 117C244.818 117 160.553 110.557 99.6703 100.175C69.1965 94.9783 44.7717 88.8258 28.0574 82.0871C19.6815 78.7101 13.4736 75.2764 9.42773 71.9047C5.34217 68.5 4 65.6324 4 63.3614C4 61.0904 5.34217 58.2228 9.42773 54.8181C13.4736 51.4465 19.6815 48.0127 28.0574 44.6357C44.7717 37.897 69.1965 31.7445 99.6703 26.5479C160.553 16.1656 244.818 9.7229 338 9.7229C431.182 9.7229 515.447 16.1656 576.33 26.5479C606.803 31.7445 631.228 37.897 647.943 44.6357C656.318 48.0127 662.526 51.4465 666.572 54.8181C670.658 58.2228 672 61.0904 672 63.3614Z" stroke="url(#paint0_linear_107_765)" stroke-width="8"/>
<path fill-rule="evenodd" clip-rule="evenodd" d="M338.044 4.9054C339.852 4.9054 341.658 4.90782 343.459 4.91264V14.9127C341.658 14.9078 339.852 14.9054 338.044 14.9054C245.092 14.9054 161.181 21.3351 100.723 31.645C82.7404 34.7115 67.0009 38.0939 53.8041 41.696H22.8311C71.8297 20.1675 194.485 4.9054 338.044 4.9054Z" fill="url(#paint1_linear_107_765)"/>
<rect x="341.474" width="1.98532" height="21.2568" fill="white"/>
<defs>
<linearGradient id="paint0_linear_107_765" x1="338" y1="5.7229" x2="338" y2="43.7398" gradientUnits="userSpaceOnUse">
<stop stop-color="#636CFF"/>
<stop offset="1" stop-color="#63FFFF" stop-opacity="0"/>
</linearGradient>
<linearGradient id="paint1_linear_107_765" x1="330.599" y1="8.99308" x2="10.963" y2="8.99309" gradientUnits="userSpaceOnUse">
<stop stop-color="white"/>
<stop offset="0.121427" stop-color="#63FFD0"/>
<stop offset="1" stop-color="#6373FF" stop-opacity="0"/>
</linearGradient>
</defs>
</svg>
